<mxfile host="app.diagrams.net" agent="Mozilla/5.0 (Windows NT 10.0; Win64; x64) AppleWebKit/537.36 (KHTML, like Gecko) Chrome/134.0.0.0 Safari/537.36" version="26.1.0">
  <diagram id="C5RBs43oDa-KdzZeNtuy" name="Page-1">
    <mxGraphModel grid="1" page="1" gridSize="10" guides="1" tooltips="1" connect="1" arrows="1" fold="1" pageScale="1" pageWidth="827" pageHeight="1169" math="0" shadow="0">
      <root>
        <mxCell id="WIyWlLk6GJQsqaUBKTNV-0" />
        <mxCell id="WIyWlLk6GJQsqaUBKTNV-1" parent="WIyWlLk6GJQsqaUBKTNV-0" />
        <mxCell id="MHBiXtwAbp6X4gqWfPdT-14" value="" style="group" connectable="0" vertex="1" parent="WIyWlLk6GJQsqaUBKTNV-1">
          <mxGeometry x="300" y="67" width="160" height="190" as="geometry" />
        </mxCell>
        <mxCell id="jiSeVn2MfP0rdhOfiE32-21" value="" style="group" connectable="0" vertex="1" parent="MHBiXtwAbp6X4gqWfPdT-14">
          <mxGeometry x="153" y="-20" width="161" height="190" as="geometry" />
        </mxCell>
        <mxCell id="zkfFHV4jXpPFQw0GAbJ--17" value="frame_menu_SytemPy" style="swimlane;fontStyle=0;align=center;verticalAlign=top;childLayout=stackLayout;horizontal=1;startSize=26;horizontalStack=0;resizeParent=1;resizeLast=0;collapsible=1;marginBottom=0;rounded=0;shadow=0;strokeWidth=1;" vertex="1" parent="jiSeVn2MfP0rdhOfiE32-21">
          <mxGeometry x="225" width="160" height="190" as="geometry">
            <mxRectangle x="550" y="140" width="160" height="26" as="alternateBounds" />
          </mxGeometry>
        </mxCell>
        <mxCell id="zkfFHV4jXpPFQw0GAbJ--18" value="+" style="text;align=left;verticalAlign=top;spacingLeft=4;spacingRight=4;overflow=hidden;rotatable=0;points=[[0,0.5],[1,0.5]];portConstraint=eastwest;" vertex="1" parent="zkfFHV4jXpPFQw0GAbJ--17">
          <mxGeometry y="26" width="160" height="26" as="geometry" />
        </mxCell>
        <mxCell id="MHBiXtwAbp6X4gqWfPdT-10" value="" style="line;html=1;strokeWidth=1;align=left;verticalAlign=middle;spacingTop=-1;spacingLeft=3;spacingRight=3;rotatable=0;labelPosition=right;points=[];portConstraint=eastwest;" vertex="1" parent="zkfFHV4jXpPFQw0GAbJ--17">
          <mxGeometry y="52" width="160" height="8" as="geometry" />
        </mxCell>
        <mxCell id="zkfFHV4jXpPFQw0GAbJ--19" value="+ frame_cadastrar()" style="text;align=left;verticalAlign=top;spacingLeft=4;spacingRight=4;overflow=hidden;rotatable=0;points=[[0,0.5],[1,0.5]];portConstraint=eastwest;rounded=0;shadow=0;html=0;" vertex="1" parent="zkfFHV4jXpPFQw0GAbJ--17">
          <mxGeometry y="60" width="160" height="26" as="geometry" />
        </mxCell>
        <mxCell id="zkfFHV4jXpPFQw0GAbJ--20" value="+ framae_editar()" style="text;align=left;verticalAlign=top;spacingLeft=4;spacingRight=4;overflow=hidden;rotatable=0;points=[[0,0.5],[1,0.5]];portConstraint=eastwest;rounded=0;shadow=0;html=0;" vertex="1" parent="zkfFHV4jXpPFQw0GAbJ--17">
          <mxGeometry y="86" width="160" height="26" as="geometry" />
        </mxCell>
        <mxCell id="zkfFHV4jXpPFQw0GAbJ--22" value="+ frame_saída()" style="text;align=left;verticalAlign=top;spacingLeft=4;spacingRight=4;overflow=hidden;rotatable=0;points=[[0,0.5],[1,0.5]];portConstraint=eastwest;rounded=0;shadow=0;html=0;" vertex="1" parent="zkfFHV4jXpPFQw0GAbJ--17">
          <mxGeometry y="112" width="160" height="26" as="geometry" />
        </mxCell>
        <mxCell id="zkfFHV4jXpPFQw0GAbJ--21" value="+ frame_entrada()" style="text;align=left;verticalAlign=top;spacingLeft=4;spacingRight=4;overflow=hidden;rotatable=0;points=[[0,0.5],[1,0.5]];portConstraint=eastwest;rounded=0;shadow=0;html=0;" vertex="1" parent="zkfFHV4jXpPFQw0GAbJ--17">
          <mxGeometry y="138" width="160" height="26" as="geometry" />
        </mxCell>
        <mxCell id="MHBiXtwAbp6X4gqWfPdT-9" value="+ frame_relatório()" style="text;align=left;verticalAlign=top;spacingLeft=4;spacingRight=4;overflow=hidden;rotatable=0;points=[[0,0.5],[1,0.5]];portConstraint=eastwest;rounded=0;shadow=0;html=0;" vertex="1" parent="zkfFHV4jXpPFQw0GAbJ--17">
          <mxGeometry y="164" width="160" height="26" as="geometry" />
        </mxCell>
        <mxCell id="MHBiXtwAbp6X4gqWfPdT-32" value="" style="group" connectable="0" vertex="1" parent="WIyWlLk6GJQsqaUBKTNV-1">
          <mxGeometry x="80" y="367.64" width="203" height="320" as="geometry" />
        </mxCell>
        <mxCell id="MHBiXtwAbp6X4gqWfPdT-15" value="" style="group" connectable="0" vertex="1" parent="MHBiXtwAbp6X4gqWfPdT-32">
          <mxGeometry x="1.2608695652173911" width="201.7391304347826" height="320" as="geometry" />
        </mxCell>
        <mxCell id="MHBiXtwAbp6X4gqWfPdT-17" value="frame_cadastro" style="swimlane;fontStyle=0;align=center;verticalAlign=top;childLayout=stackLayout;horizontal=1;startSize=26;horizontalStack=0;resizeParent=1;resizeLast=0;collapsible=1;marginBottom=0;rounded=0;shadow=0;strokeWidth=1;" vertex="1" parent="MHBiXtwAbp6X4gqWfPdT-15">
          <mxGeometry width="190" height="210" as="geometry">
            <mxRectangle x="550" y="140" width="160" height="26" as="alternateBounds" />
          </mxGeometry>
        </mxCell>
        <mxCell id="MHBiXtwAbp6X4gqWfPdT-19" value="" style="line;html=1;strokeWidth=1;align=left;verticalAlign=middle;spacingTop=-1;spacingLeft=3;spacingRight=3;rotatable=0;labelPosition=right;points=[];portConstraint=eastwest;" vertex="1" parent="MHBiXtwAbp6X4gqWfPdT-17">
          <mxGeometry y="26" width="190" height="13.473684210526313" as="geometry" />
        </mxCell>
        <mxCell id="MHBiXtwAbp6X4gqWfPdT-21" value="+titulo_cadastrar_produto: string" style="text;align=left;verticalAlign=top;spacingLeft=4;spacingRight=4;overflow=hidden;rotatable=0;points=[[0,0.5],[1,0.5]];portConstraint=eastwest;rounded=0;shadow=0;html=0;" vertex="1" parent="MHBiXtwAbp6X4gqWfPdT-17">
          <mxGeometry y="39.473684210526315" width="190" height="25.635555555555552" as="geometry" />
        </mxCell>
        <mxCell id="MHBiXtwAbp6X4gqWfPdT-22" value="+ texto_cadastrar_preco: float" style="text;align=left;verticalAlign=top;spacingLeft=4;spacingRight=4;overflow=hidden;rotatable=0;points=[[0,0.5],[1,0.5]];portConstraint=eastwest;rounded=0;shadow=0;html=0;" vertex="1" parent="MHBiXtwAbp6X4gqWfPdT-17">
          <mxGeometry y="65.10923976608187" width="190" height="26.666666666666668" as="geometry" />
        </mxCell>
        <mxCell id="MHBiXtwAbp6X4gqWfPdT-23" value="+ texto_cadastrar_descricao: string" style="text;align=left;verticalAlign=top;spacingLeft=4;spacingRight=4;overflow=hidden;rotatable=0;points=[[0,0.5],[1,0.5]];portConstraint=eastwest;rounded=0;shadow=0;html=0;" vertex="1" parent="MHBiXtwAbp6X4gqWfPdT-17">
          <mxGeometry y="91.77590643274854" width="190" height="43.78947368421052" as="geometry" />
        </mxCell>
        <mxCell id="MHBiXtwAbp6X4gqWfPdT-25" value="" style="line;html=1;strokeWidth=1;align=left;verticalAlign=middle;spacingTop=-1;spacingLeft=3;spacingRight=3;rotatable=0;labelPosition=right;points=[];portConstraint=eastwest;" vertex="1" parent="MHBiXtwAbp6X4gqWfPdT-17">
          <mxGeometry y="135.56538011695906" width="190" height="17.12" as="geometry" />
        </mxCell>
        <mxCell id="MHBiXtwAbp6X4gqWfPdT-29" value="+botao_cadastrar_salvar()" style="text;align=left;verticalAlign=top;spacingLeft=4;spacingRight=4;overflow=hidden;rotatable=0;points=[[0,0.5],[1,0.5]];portConstraint=eastwest;rounded=0;shadow=0;html=0;" vertex="1" parent="MHBiXtwAbp6X4gqWfPdT-17">
          <mxGeometry y="152.68538011695907" width="190" height="29.80848484848484" as="geometry" />
        </mxCell>
        <mxCell id="MHBiXtwAbp6X4gqWfPdT-33" value="" style="group" connectable="0" vertex="1" parent="WIyWlLk6GJQsqaUBKTNV-1">
          <mxGeometry x="300" y="363" width="240" height="300" as="geometry" />
        </mxCell>
        <mxCell id="MHBiXtwAbp6X4gqWfPdT-34" value="" style="group" connectable="0" vertex="1" parent="MHBiXtwAbp6X4gqWfPdT-33">
          <mxGeometry x="0.8540925266903915" width="239.1459074733096" height="300" as="geometry" />
        </mxCell>
        <mxCell id="MHBiXtwAbp6X4gqWfPdT-35" value="frame_editar" style="swimlane;fontStyle=0;align=center;verticalAlign=top;childLayout=stackLayout;horizontal=1;startSize=26;horizontalStack=0;resizeParent=1;resizeLast=0;collapsible=1;marginBottom=0;rounded=0;shadow=0;strokeWidth=1;" vertex="1" parent="MHBiXtwAbp6X4gqWfPdT-34">
          <mxGeometry width="222.06405693950177" height="300" as="geometry">
            <mxRectangle x="550" y="140" width="160" height="26" as="alternateBounds" />
          </mxGeometry>
        </mxCell>
        <mxCell id="MHBiXtwAbp6X4gqWfPdT-36" value="" style="line;html=1;strokeWidth=1;align=left;verticalAlign=middle;spacingTop=-1;spacingLeft=3;spacingRight=3;rotatable=0;labelPosition=right;points=[];portConstraint=eastwest;" vertex="1" parent="MHBiXtwAbp6X4gqWfPdT-35">
          <mxGeometry y="26" width="222.06405693950177" height="12.63157894736842" as="geometry" />
        </mxCell>
        <mxCell id="MHBiXtwAbp6X4gqWfPdT-37" value="+entrada_editar_nome_produto: string" style="text;align=left;verticalAlign=top;spacingLeft=4;spacingRight=4;overflow=hidden;rotatable=0;points=[[0,0.5],[1,0.5]];portConstraint=eastwest;rounded=0;shadow=0;html=0;" vertex="1" parent="MHBiXtwAbp6X4gqWfPdT-35">
          <mxGeometry y="38.63157894736842" width="222.06405693950177" height="24.03333333333333" as="geometry" />
        </mxCell>
        <mxCell id="MHBiXtwAbp6X4gqWfPdT-38" value="+entrada_editar_buscar_produto: string" style="text;align=left;verticalAlign=top;spacingLeft=4;spacingRight=4;overflow=hidden;rotatable=0;points=[[0,0.5],[1,0.5]];portConstraint=eastwest;rounded=0;shadow=0;html=0;" vertex="1" parent="MHBiXtwAbp6X4gqWfPdT-35">
          <mxGeometry y="62.66491228070175" width="222.06405693950177" height="25" as="geometry" />
        </mxCell>
        <mxCell id="MHBiXtwAbp6X4gqWfPdT-39" value="+entrada_editar_preco: float" style="text;align=left;verticalAlign=top;spacingLeft=4;spacingRight=4;overflow=hidden;rotatable=0;points=[[0,0.5],[1,0.5]];portConstraint=eastwest;rounded=0;shadow=0;html=0;" vertex="1" parent="MHBiXtwAbp6X4gqWfPdT-35">
          <mxGeometry y="87.66491228070174" width="222.06405693950177" height="43.34" as="geometry" />
        </mxCell>
        <mxCell id="MHBiXtwAbp6X4gqWfPdT-40" value="" style="line;html=1;strokeWidth=1;align=left;verticalAlign=middle;spacingTop=-1;spacingLeft=3;spacingRight=3;rotatable=0;labelPosition=right;points=[];portConstraint=eastwest;" vertex="1" parent="MHBiXtwAbp6X4gqWfPdT-35">
          <mxGeometry y="131.00491228070175" width="222.06405693950177" height="16.05" as="geometry" />
        </mxCell>
        <mxCell id="MHBiXtwAbp6X4gqWfPdT-41" value="+entrada_editar_buscar_produto()" style="text;align=left;verticalAlign=top;spacingLeft=4;spacingRight=4;overflow=hidden;rotatable=0;points=[[0,0.5],[1,0.5]];portConstraint=eastwest;rounded=0;shadow=0;html=0;" vertex="1" parent="MHBiXtwAbp6X4gqWfPdT-35">
          <mxGeometry y="147.05491228070176" width="222.06405693950177" height="27.945454545454538" as="geometry" />
        </mxCell>
        <mxCell id="MHBiXtwAbp6X4gqWfPdT-44" value="+botao_editar_excluir()" style="text;align=left;verticalAlign=top;spacingLeft=4;spacingRight=4;overflow=hidden;rotatable=0;points=[[0,0.5],[1,0.5]];portConstraint=eastwest;rounded=0;shadow=0;html=0;" vertex="1" parent="MHBiXtwAbp6X4gqWfPdT-35">
          <mxGeometry y="175.0003668261563" width="222.06405693950177" height="28.818749999999998" as="geometry" />
        </mxCell>
        <mxCell id="Cwh5arlhYMUDAMULEGBz-9" value="+botao_editar_savar()" style="text;align=left;verticalAlign=top;spacingLeft=4;spacingRight=4;overflow=hidden;rotatable=0;points=[[0,0.5],[1,0.5]];portConstraint=eastwest;rounded=0;shadow=0;html=0;" vertex="1" parent="MHBiXtwAbp6X4gqWfPdT-35">
          <mxGeometry y="203.8191168261563" width="222.06405693950177" height="38.24" as="geometry" />
        </mxCell>
        <mxCell id="MHBiXtwAbp6X4gqWfPdT-46" value="+botao_editar_cancelar()" style="text;align=left;verticalAlign=top;spacingLeft=4;spacingRight=4;overflow=hidden;rotatable=0;points=[[0,0.5],[1,0.5]];portConstraint=eastwest;rounded=0;shadow=0;html=0;" vertex="1" parent="MHBiXtwAbp6X4gqWfPdT-35">
          <mxGeometry y="242.0591168261563" width="222.06405693950177" height="38.24" as="geometry" />
        </mxCell>
        <mxCell id="MHBiXtwAbp6X4gqWfPdT-47" value="" style="group" connectable="0" vertex="1" parent="WIyWlLk6GJQsqaUBKTNV-1">
          <mxGeometry x="520" y="700" width="180" height="320" as="geometry" />
        </mxCell>
        <mxCell id="MHBiXtwAbp6X4gqWfPdT-48" value="frame_saida" style="swimlane;fontStyle=0;align=center;verticalAlign=top;childLayout=stackLayout;horizontal=1;startSize=26;horizontalStack=0;resizeParent=1;resizeLast=0;collapsible=1;marginBottom=0;rounded=0;shadow=0;strokeWidth=1;" vertex="1" parent="MHBiXtwAbp6X4gqWfPdT-47">
          <mxGeometry width="180" height="347.3473345295056" as="geometry">
            <mxRectangle x="550" y="140" width="160" height="26" as="alternateBounds" />
          </mxGeometry>
        </mxCell>
        <mxCell id="MHBiXtwAbp6X4gqWfPdT-49" value="" style="line;html=1;strokeWidth=1;align=left;verticalAlign=middle;spacingTop=-1;spacingLeft=3;spacingRight=3;rotatable=0;labelPosition=right;points=[];portConstraint=eastwest;" vertex="1" parent="MHBiXtwAbp6X4gqWfPdT-48">
          <mxGeometry y="26" width="180" height="12.63157894736842" as="geometry" />
        </mxCell>
        <mxCell id="MHBiXtwAbp6X4gqWfPdT-50" value="+ texto_saida_produto : string" style="text;align=left;verticalAlign=top;spacingLeft=4;spacingRight=4;overflow=hidden;rotatable=0;points=[[0,0.5],[1,0.5]];portConstraint=eastwest;rounded=0;shadow=0;html=0;" vertex="1" parent="MHBiXtwAbp6X4gqWfPdT-48">
          <mxGeometry y="38.63157894736842" width="180" height="24.03333333333333" as="geometry" />
        </mxCell>
        <mxCell id="MHBiXtwAbp6X4gqWfPdT-51" value="+entrada_qtde_retirada: int" style="text;align=left;verticalAlign=top;spacingLeft=4;spacingRight=4;overflow=hidden;rotatable=0;points=[[0,0.5],[1,0.5]];portConstraint=eastwest;rounded=0;shadow=0;html=0;" vertex="1" parent="MHBiXtwAbp6X4gqWfPdT-48">
          <mxGeometry y="62.66491228070175" width="180" height="25" as="geometry" />
        </mxCell>
        <mxCell id="MHBiXtwAbp6X4gqWfPdT-52" value="+entrada_nome_qtde: int" style="text;align=left;verticalAlign=top;spacingLeft=4;spacingRight=4;overflow=hidden;rotatable=0;points=[[0,0.5],[1,0.5]];portConstraint=eastwest;rounded=0;shadow=0;html=0;" vertex="1" parent="MHBiXtwAbp6X4gqWfPdT-48">
          <mxGeometry y="87.66491228070174" width="180" height="41.05263157894736" as="geometry" />
        </mxCell>
        <mxCell id="Cwh5arlhYMUDAMULEGBz-12" value="+entrada_nome_buscar: string" style="text;align=left;verticalAlign=top;spacingLeft=4;spacingRight=4;overflow=hidden;rotatable=0;points=[[0,0.5],[1,0.5]];portConstraint=eastwest;rounded=0;shadow=0;html=0;" vertex="1" parent="MHBiXtwAbp6X4gqWfPdT-48">
          <mxGeometry y="128.7175438596491" width="180" height="41.05263157894736" as="geometry" />
        </mxCell>
        <mxCell id="MHBiXtwAbp6X4gqWfPdT-53" value="" style="line;html=1;strokeWidth=1;align=left;verticalAlign=middle;spacingTop=-1;spacingLeft=3;spacingRight=3;rotatable=0;labelPosition=right;points=[];portConstraint=eastwest;" vertex="1" parent="MHBiXtwAbp6X4gqWfPdT-48">
          <mxGeometry y="169.77017543859648" width="180" height="35.23" as="geometry" />
        </mxCell>
        <mxCell id="MHBiXtwAbp6X4gqWfPdT-54" value="+entrada_nome_buscar()" style="text;align=left;verticalAlign=top;spacingLeft=4;spacingRight=4;overflow=hidden;rotatable=0;points=[[0,0.5],[1,0.5]];portConstraint=eastwest;rounded=0;shadow=0;html=0;" vertex="1" parent="MHBiXtwAbp6X4gqWfPdT-48">
          <mxGeometry y="205.00017543859647" width="180" height="27.945454545454538" as="geometry" />
        </mxCell>
        <mxCell id="MHBiXtwAbp6X4gqWfPdT-56" value="+botao_salva()" style="text;align=left;verticalAlign=top;spacingLeft=4;spacingRight=4;overflow=hidden;rotatable=0;points=[[0,0.5],[1,0.5]];portConstraint=eastwest;rounded=0;shadow=0;html=0;" vertex="1" parent="MHBiXtwAbp6X4gqWfPdT-48">
          <mxGeometry y="232.945629984051" width="180" height="28.818749999999998" as="geometry" />
        </mxCell>
        <mxCell id="MHBiXtwAbp6X4gqWfPdT-57" value="+botao_cancelar()" style="text;align=left;verticalAlign=top;spacingLeft=4;spacingRight=4;overflow=hidden;rotatable=0;points=[[0,0.5],[1,0.5]];portConstraint=eastwest;rounded=0;shadow=0;html=0;" vertex="1" parent="MHBiXtwAbp6X4gqWfPdT-48">
          <mxGeometry y="261.764379984051" width="180" height="28.818749999999998" as="geometry" />
        </mxCell>
        <mxCell id="MHBiXtwAbp6X4gqWfPdT-59" value="+botao_adicionar_item" style="text;align=left;verticalAlign=top;spacingLeft=4;spacingRight=4;overflow=hidden;rotatable=0;points=[[0,0.5],[1,0.5]];portConstraint=eastwest;rounded=0;shadow=0;html=0;" vertex="1" parent="MHBiXtwAbp6X4gqWfPdT-48">
          <mxGeometry y="290.583129984051" width="180" height="28.818749999999998" as="geometry" />
        </mxCell>
        <mxCell id="MHBiXtwAbp6X4gqWfPdT-60" value="" style="group" connectable="0" vertex="1" parent="WIyWlLk6GJQsqaUBKTNV-1">
          <mxGeometry x="680" y="362" width="180" height="260" as="geometry" />
        </mxCell>
        <mxCell id="MHBiXtwAbp6X4gqWfPdT-61" value="EntradaDeProduto" style="swimlane;fontStyle=0;align=center;verticalAlign=top;childLayout=stackLayout;horizontal=1;startSize=26;horizontalStack=0;resizeParent=1;resizeLast=0;collapsible=1;marginBottom=0;rounded=0;shadow=0;strokeWidth=1;" vertex="1" parent="MHBiXtwAbp6X4gqWfPdT-60">
          <mxGeometry width="180" height="240" as="geometry">
            <mxRectangle x="550" y="140" width="160" height="26" as="alternateBounds" />
          </mxGeometry>
        </mxCell>
        <mxCell id="MHBiXtwAbp6X4gqWfPdT-62" value="" style="line;html=1;strokeWidth=1;align=left;verticalAlign=middle;spacingTop=-1;spacingLeft=3;spacingRight=3;rotatable=0;labelPosition=right;points=[];portConstraint=eastwest;" vertex="1" parent="MHBiXtwAbp6X4gqWfPdT-61">
          <mxGeometry y="26" width="180" height="10.947368421052628" as="geometry" />
        </mxCell>
        <mxCell id="MHBiXtwAbp6X4gqWfPdT-63" value="+texto_entrada_produto: string" style="text;align=left;verticalAlign=top;spacingLeft=4;spacingRight=4;overflow=hidden;rotatable=0;points=[[0,0.5],[1,0.5]];portConstraint=eastwest;rounded=0;shadow=0;html=0;" vertex="1" parent="MHBiXtwAbp6X4gqWfPdT-61">
          <mxGeometry y="36.94736842105263" width="180" height="20.828888888888887" as="geometry" />
        </mxCell>
        <mxCell id="MHBiXtwAbp6X4gqWfPdT-64" value="+entrada_qtde_adicionada: float" style="text;align=left;verticalAlign=top;spacingLeft=4;spacingRight=4;overflow=hidden;rotatable=0;points=[[0,0.5],[1,0.5]];portConstraint=eastwest;rounded=0;shadow=0;html=0;" vertex="1" parent="MHBiXtwAbp6X4gqWfPdT-61">
          <mxGeometry y="57.77625730994151" width="180" height="21.666666666666664" as="geometry" />
        </mxCell>
        <mxCell id="MHBiXtwAbp6X4gqWfPdT-65" value="+entrada_nome_quantidade: string" style="text;align=left;verticalAlign=top;spacingLeft=4;spacingRight=4;overflow=hidden;rotatable=0;points=[[0,0.5],[1,0.5]];portConstraint=eastwest;rounded=0;shadow=0;html=0;" vertex="1" parent="MHBiXtwAbp6X4gqWfPdT-61">
          <mxGeometry y="79.44292397660817" width="180" height="35.57894736842105" as="geometry" />
        </mxCell>
        <mxCell id="MHBiXtwAbp6X4gqWfPdT-66" value="" style="line;html=1;strokeWidth=1;align=left;verticalAlign=middle;spacingTop=-1;spacingLeft=3;spacingRight=3;rotatable=0;labelPosition=right;points=[];portConstraint=eastwest;" vertex="1" parent="MHBiXtwAbp6X4gqWfPdT-61">
          <mxGeometry y="115.02187134502921" width="180" height="13.91" as="geometry" />
        </mxCell>
        <mxCell id="MHBiXtwAbp6X4gqWfPdT-67" value="+entrada_buscar()" style="text;align=left;verticalAlign=top;spacingLeft=4;spacingRight=4;overflow=hidden;rotatable=0;points=[[0,0.5],[1,0.5]];portConstraint=eastwest;rounded=0;shadow=0;html=0;" vertex="1" parent="MHBiXtwAbp6X4gqWfPdT-61">
          <mxGeometry y="128.9318713450292" width="180" height="24.21939393939393" as="geometry" />
        </mxCell>
        <mxCell id="MHBiXtwAbp6X4gqWfPdT-69" value="+botao_cancelar_entrada()" style="text;align=left;verticalAlign=top;spacingLeft=4;spacingRight=4;overflow=hidden;rotatable=0;points=[[0,0.5],[1,0.5]];portConstraint=eastwest;rounded=0;shadow=0;html=0;" vertex="1" parent="MHBiXtwAbp6X4gqWfPdT-61">
          <mxGeometry y="153.15126528442315" width="180" height="24.976249999999997" as="geometry" />
        </mxCell>
        <mxCell id="MHBiXtwAbp6X4gqWfPdT-70" value="+botao_salvar_entrada()" style="text;align=left;verticalAlign=top;spacingLeft=4;spacingRight=4;overflow=hidden;rotatable=0;points=[[0,0.5],[1,0.5]];portConstraint=eastwest;rounded=0;shadow=0;html=0;" vertex="1" parent="MHBiXtwAbp6X4gqWfPdT-61">
          <mxGeometry y="178.12751528442314" width="180" height="24.976249999999997" as="geometry" />
        </mxCell>
        <mxCell id="p8QUXjLCniY365Z9Mt4o-14" value="&#39;" style="group" connectable="0" vertex="1" parent="WIyWlLk6GJQsqaUBKTNV-1">
          <mxGeometry x="1110" y="454" width="260" height="260" as="geometry" />
        </mxCell>
        <mxCell id="p8QUXjLCniY365Z9Mt4o-15" value="frame_relatorio_estoque" style="swimlane;fontStyle=0;align=center;verticalAlign=top;childLayout=stackLayout;horizontal=1;startSize=26;horizontalStack=0;resizeParent=1;resizeLast=0;collapsible=1;marginBottom=0;rounded=0;shadow=0;strokeWidth=1;" vertex="1" parent="p8QUXjLCniY365Z9Mt4o-14">
          <mxGeometry x="10.4" width="249.6" height="260" as="geometry">
            <mxRectangle x="550" y="140" width="160" height="26" as="alternateBounds" />
          </mxGeometry>
        </mxCell>
        <mxCell id="p8QUXjLCniY365Z9Mt4o-17" value="+texto_relatorio_entrada:string&#xa;&#xa;+ tree_entrada: string" style="text;align=left;verticalAlign=top;spacingLeft=4;spacingRight=4;overflow=hidden;rotatable=0;points=[[0,0.5],[1,0.5]];portConstraint=eastwest;rounded=0;shadow=0;html=0;" vertex="1" parent="p8QUXjLCniY365Z9Mt4o-15">
          <mxGeometry y="26" width="249.6" height="44" as="geometry" />
        </mxCell>
        <mxCell id="p8QUXjLCniY365Z9Mt4o-20" value="" style="line;html=1;strokeWidth=1;align=left;verticalAlign=middle;spacingTop=-1;spacingLeft=3;spacingRight=3;rotatable=0;labelPosition=right;points=[];portConstraint=eastwest;" vertex="1" parent="p8QUXjLCniY365Z9Mt4o-15">
          <mxGeometry y="70" width="249.6" height="10.804390243902438" as="geometry" />
        </mxCell>
        <mxCell id="p8QUXjLCniY365Z9Mt4o-103" value="" style="group" connectable="0" vertex="1" parent="WIyWlLk6GJQsqaUBKTNV-1">
          <mxGeometry x="870" y="452" width="240" height="268" as="geometry" />
        </mxCell>
        <mxCell id="p8QUXjLCniY365Z9Mt4o-104" value="frame_relatorio_entrada" style="swimlane;fontStyle=0;align=center;verticalAlign=top;childLayout=stackLayout;horizontal=1;startSize=26;horizontalStack=0;resizeParent=1;resizeLast=0;collapsible=1;marginBottom=0;rounded=0;shadow=0;strokeWidth=1;" vertex="1" parent="p8QUXjLCniY365Z9Mt4o-103">
          <mxGeometry width="240" height="253.40983357682342" as="geometry">
            <mxRectangle x="550" y="140" width="160" height="26" as="alternateBounds" />
          </mxGeometry>
        </mxCell>
        <mxCell id="p8QUXjLCniY365Z9Mt4o-105" value="+texto_relatorio: string&#xa;&#xa;+tree_entrada: string" style="text;align=left;verticalAlign=top;spacingLeft=4;spacingRight=4;overflow=hidden;rotatable=0;points=[[0,0.5],[1,0.5]];portConstraint=eastwest;rounded=0;shadow=0;html=0;" vertex="1" parent="p8QUXjLCniY365Z9Mt4o-104">
          <mxGeometry y="26" width="240" height="64" as="geometry" />
        </mxCell>
        <mxCell id="p8QUXjLCniY365Z9Mt4o-107" value="" style="line;html=1;strokeWidth=1;align=left;verticalAlign=middle;spacingTop=-1;spacingLeft=3;spacingRight=3;rotatable=0;labelPosition=right;points=[];portConstraint=eastwest;" vertex="1" parent="p8QUXjLCniY365Z9Mt4o-104">
          <mxGeometry y="90" width="240" height="12.651176470588238" as="geometry" />
        </mxCell>
        <mxCell id="p8QUXjLCniY365Z9Mt4o-108" value="+entrada_buscar_produto_relatorio:string" style="text;align=left;verticalAlign=top;spacingLeft=4;spacingRight=4;overflow=hidden;rotatable=0;points=[[0,0.5],[1,0.5]];portConstraint=eastwest;rounded=0;shadow=0;html=0;" vertex="1" parent="p8QUXjLCniY365Z9Mt4o-104">
          <mxGeometry y="102.65117647058824" width="240" height="22.027593582887704" as="geometry" />
        </mxCell>
        <mxCell id="p8QUXjLCniY365Z9Mt4o-109" value="+botao_estoque_relatorio()" style="text;align=left;verticalAlign=top;spacingLeft=4;spacingRight=4;overflow=hidden;rotatable=0;points=[[0,0.5],[1,0.5]];portConstraint=eastwest;rounded=0;shadow=0;html=0;" vertex="1" parent="p8QUXjLCniY365Z9Mt4o-104">
          <mxGeometry y="124.67877005347594" width="240" height="22.715955882352944" as="geometry" />
        </mxCell>
        <mxCell id="p8QUXjLCniY365Z9Mt4o-110" value="+botao_saida_relatorio()" style="text;align=left;verticalAlign=top;spacingLeft=4;spacingRight=4;overflow=hidden;rotatable=0;points=[[0,0.5],[1,0.5]];portConstraint=eastwest;rounded=0;shadow=0;html=0;" vertex="1" parent="p8QUXjLCniY365Z9Mt4o-104">
          <mxGeometry y="147.3947259358289" width="240" height="22.715955882352944" as="geometry" />
        </mxCell>
        <mxCell id="p8QUXjLCniY365Z9Mt4o-111" value="+botao_entrada_relatorio()" style="text;align=left;verticalAlign=top;spacingLeft=4;spacingRight=4;overflow=hidden;rotatable=0;points=[[0,0.5],[1,0.5]];portConstraint=eastwest;rounded=0;shadow=0;html=0;" vertex="1" parent="p8QUXjLCniY365Z9Mt4o-104">
          <mxGeometry y="170.11068181818183" width="240" height="22.715955882352944" as="geometry" />
        </mxCell>
        <mxCell id="p8QUXjLCniY365Z9Mt4o-112" value="+botao_exportar_entrada()&#xa;&#xa;+botao_entrada_relatorio()" style="text;align=left;verticalAlign=top;spacingLeft=4;spacingRight=4;overflow=hidden;rotatable=0;points=[[0,0.5],[1,0.5]];portConstraint=eastwest;rounded=0;shadow=0;html=0;" vertex="1" parent="p8QUXjLCniY365Z9Mt4o-104">
          <mxGeometry y="192.82663770053477" width="240" height="60.583195876288656" as="geometry" />
        </mxCell>
        <mxCell id="jiSeVn2MfP0rdhOfiE32-0" value="" style="group" connectable="0" vertex="1" parent="WIyWlLk6GJQsqaUBKTNV-1">
          <mxGeometry x="1159" y="922" width="180" height="410" as="geometry" />
        </mxCell>
        <mxCell id="jiSeVn2MfP0rdhOfiE32-1" value="Popup" style="swimlane;fontStyle=0;align=center;verticalAlign=top;childLayout=stackLayout;horizontal=1;startSize=26;horizontalStack=0;resizeParent=1;resizeLast=0;collapsible=1;marginBottom=0;rounded=0;shadow=0;strokeWidth=1;" vertex="1" parent="jiSeVn2MfP0rdhOfiE32-0">
          <mxGeometry width="180" height="394.5948250891266" as="geometry">
            <mxRectangle x="550" y="140" width="160" height="26" as="alternateBounds" />
          </mxGeometry>
        </mxCell>
        <mxCell id="jiSeVn2MfP0rdhOfiE32-2" value="+escolher_relatorio: booleana&#xa;&#xa;" style="text;align=left;verticalAlign=top;spacingLeft=4;spacingRight=4;overflow=hidden;rotatable=0;points=[[0,0.5],[1,0.5]];portConstraint=eastwest;rounded=0;shadow=0;html=0;" vertex="1" parent="jiSeVn2MfP0rdhOfiE32-1">
          <mxGeometry y="26" width="180" height="28.98137254901961" as="geometry" />
        </mxCell>
        <mxCell id="jiSeVn2MfP0rdhOfiE32-5" value="+escolher_extencao:string" style="text;align=left;verticalAlign=top;spacingLeft=4;spacingRight=4;overflow=hidden;rotatable=0;points=[[0,0.5],[1,0.5]];portConstraint=eastwest;rounded=0;shadow=0;html=0;" vertex="1" parent="jiSeVn2MfP0rdhOfiE32-1">
          <mxGeometry y="54.98137254901961" width="180" height="33.698930481283426" as="geometry" />
        </mxCell>
        <mxCell id="jiSeVn2MfP0rdhOfiE32-4" value="" style="line;html=1;strokeWidth=1;align=left;verticalAlign=middle;spacingTop=-1;spacingLeft=3;spacingRight=3;rotatable=0;labelPosition=right;points=[];portConstraint=eastwest;" vertex="1" parent="jiSeVn2MfP0rdhOfiE32-1">
          <mxGeometry y="88.68030303030304" width="180" height="19.354411764705887" as="geometry" />
        </mxCell>
        <mxCell id="jiSeVn2MfP0rdhOfiE32-6" value="+exportar_estoque()" style="text;align=left;verticalAlign=top;spacingLeft=4;spacingRight=4;overflow=hidden;rotatable=0;points=[[0,0.5],[1,0.5]];portConstraint=eastwest;rounded=0;shadow=0;html=0;" vertex="1" parent="jiSeVn2MfP0rdhOfiE32-1">
          <mxGeometry y="108.03471479500892" width="180" height="34.752022058823535" as="geometry" />
        </mxCell>
        <mxCell id="Cwh5arlhYMUDAMULEGBz-30" value="+exportar_saida()" style="text;align=left;verticalAlign=top;spacingLeft=4;spacingRight=4;overflow=hidden;rotatable=0;points=[[0,0.5],[1,0.5]];portConstraint=eastwest;rounded=0;shadow=0;html=0;" vertex="1" parent="jiSeVn2MfP0rdhOfiE32-1">
          <mxGeometry y="142.78673685383245" width="180" height="34.752022058823535" as="geometry" />
        </mxCell>
        <mxCell id="Cwh5arlhYMUDAMULEGBz-31" value="+exportar_entrada()" style="text;align=left;verticalAlign=top;spacingLeft=4;spacingRight=4;overflow=hidden;rotatable=0;points=[[0,0.5],[1,0.5]];portConstraint=eastwest;rounded=0;shadow=0;html=0;" vertex="1" parent="jiSeVn2MfP0rdhOfiE32-1">
          <mxGeometry y="177.538758912656" width="180" height="34.752022058823535" as="geometry" />
        </mxCell>
        <mxCell id="jiSeVn2MfP0rdhOfiE32-8" value="+formato_word()" style="text;align=left;verticalAlign=top;spacingLeft=4;spacingRight=4;overflow=hidden;rotatable=0;points=[[0,0.5],[1,0.5]];portConstraint=eastwest;rounded=0;shadow=0;html=0;" vertex="1" parent="jiSeVn2MfP0rdhOfiE32-1">
          <mxGeometry y="212.29078097147953" width="180" height="34.752022058823535" as="geometry" />
        </mxCell>
        <mxCell id="jiSeVn2MfP0rdhOfiE32-9" value="+formato_pdf" style="text;align=left;verticalAlign=top;spacingLeft=4;spacingRight=4;overflow=hidden;rotatable=0;points=[[0,0.5],[1,0.5]];portConstraint=eastwest;rounded=0;shadow=0;html=0;" vertex="1" parent="jiSeVn2MfP0rdhOfiE32-1">
          <mxGeometry y="247.04280303030308" width="180" height="28.2" as="geometry" />
        </mxCell>
        <mxCell id="jiSeVn2MfP0rdhOfiE32-10" value="+formato_excel()" style="text;align=left;verticalAlign=top;spacingLeft=4;spacingRight=4;overflow=hidden;rotatable=0;points=[[0,0.5],[1,0.5]];portConstraint=eastwest;rounded=0;shadow=0;html=0;" vertex="1" parent="jiSeVn2MfP0rdhOfiE32-1">
          <mxGeometry y="275.2428030303031" width="180" height="28.2" as="geometry" />
        </mxCell>
        <mxCell id="jiSeVn2MfP0rdhOfiE32-11" value="+salvar_popup()" style="text;align=left;verticalAlign=top;spacingLeft=4;spacingRight=4;overflow=hidden;rotatable=0;points=[[0,0.5],[1,0.5]];portConstraint=eastwest;rounded=0;shadow=0;html=0;" vertex="1" parent="jiSeVn2MfP0rdhOfiE32-1">
          <mxGeometry y="303.4428030303031" width="180" height="28.2" as="geometry" />
        </mxCell>
        <mxCell id="jiSeVn2MfP0rdhOfiE32-12" value="+cancelar_popup()" style="text;align=left;verticalAlign=top;spacingLeft=4;spacingRight=4;overflow=hidden;rotatable=0;points=[[0,0.5],[1,0.5]];portConstraint=eastwest;rounded=0;shadow=0;html=0;" vertex="1" parent="jiSeVn2MfP0rdhOfiE32-1">
          <mxGeometry y="331.64280303030307" width="180" height="28.2" as="geometry" />
        </mxCell>
        <mxCell id="p8QUXjLCniY365Z9Mt4o-3" value="Relatorio" style="swimlane;fontStyle=0;align=center;verticalAlign=top;childLayout=stackLayout;horizontal=1;startSize=26;horizontalStack=0;resizeParent=1;resizeLast=0;collapsible=1;marginBottom=0;rounded=0;shadow=0;strokeWidth=1;" vertex="1" parent="WIyWlLk6GJQsqaUBKTNV-1">
          <mxGeometry x="1090" y="362" width="160" height="60" as="geometry">
            <mxRectangle x="550" y="140" width="160" height="26" as="alternateBounds" />
          </mxGeometry>
        </mxCell>
        <mxCell id="jiSeVn2MfP0rdhOfiE32-46" value="" style="endArrow=block;endFill=1;html=1;edgeStyle=orthogonalEdgeStyle;align=left;verticalAlign=top;rounded=0;exitX=0.019;exitY=0.923;exitDx=0;exitDy=0;exitPerimeter=0;" edge="1" parent="WIyWlLk6GJQsqaUBKTNV-1" source="MHBiXtwAbp6X4gqWfPdT-9">
          <mxGeometry x="-1" relative="1" as="geometry">
            <mxPoint x="160" y="240" as="sourcePoint" />
            <mxPoint x="160" y="360" as="targetPoint" />
          </mxGeometry>
        </mxCell>
        <mxCell id="jiSeVn2MfP0rdhOfiE32-48" value="" style="endArrow=block;endFill=1;html=1;edgeStyle=orthogonalEdgeStyle;align=left;verticalAlign=top;rounded=0;" edge="1" parent="WIyWlLk6GJQsqaUBKTNV-1">
          <mxGeometry x="-1" relative="1" as="geometry">
            <mxPoint x="920" y="238" as="sourcePoint" />
            <mxPoint x="1163.04" y="362" as="targetPoint" />
            <Array as="points">
              <mxPoint x="920" y="241" />
              <mxPoint x="830" y="241" />
              <mxPoint x="830" y="242" />
              <mxPoint x="1023" y="242" />
              <mxPoint x="1023" y="241" />
              <mxPoint x="1163" y="241" />
            </Array>
          </mxGeometry>
        </mxCell>
        <mxCell id="jiSeVn2MfP0rdhOfiE32-49" value="" style="html=1;verticalAlign=bottom;endArrow=block;curved=0;rounded=0;" edge="1" parent="WIyWlLk6GJQsqaUBKTNV-1">
          <mxGeometry width="80" relative="1" as="geometry">
            <mxPoint x="415" y="240" as="sourcePoint" />
            <mxPoint x="415" y="360" as="targetPoint" />
          </mxGeometry>
        </mxCell>
        <mxCell id="jiSeVn2MfP0rdhOfiE32-53" value="" style="endArrow=block;endFill=1;html=1;edgeStyle=orthogonalEdgeStyle;align=left;verticalAlign=top;rounded=0;exitX=0;exitY=0.75;exitDx=0;exitDy=0;" edge="1" parent="WIyWlLk6GJQsqaUBKTNV-1" source="p8QUXjLCniY365Z9Mt4o-3">
          <mxGeometry x="-1" relative="1" as="geometry">
            <mxPoint x="990" y="402" as="sourcePoint" />
            <mxPoint x="922" y="453" as="targetPoint" />
          </mxGeometry>
        </mxCell>
        <mxCell id="jiSeVn2MfP0rdhOfiE32-55" value="" style="html=1;verticalAlign=bottom;endArrow=block;curved=0;rounded=0;entryX=0.217;entryY=-0.008;entryDx=0;entryDy=0;entryPerimeter=0;" edge="1" parent="WIyWlLk6GJQsqaUBKTNV-1">
          <mxGeometry width="80" relative="1" as="geometry">
            <mxPoint x="1182" y="422" as="sourcePoint" />
            <mxPoint x="1181.06" y="448.81908660052545" as="targetPoint" />
          </mxGeometry>
        </mxCell>
        <mxCell id="jiSeVn2MfP0rdhOfiE32-58" value="" style="html=1;verticalAlign=bottom;endArrow=block;curved=0;rounded=0;" edge="1" parent="WIyWlLk6GJQsqaUBKTNV-1">
          <mxGeometry width="80" relative="1" as="geometry">
            <mxPoint x="1290" y="920" as="sourcePoint" />
            <mxPoint x="1510" y="750" as="targetPoint" />
          </mxGeometry>
        </mxCell>
        <mxCell id="jiSeVn2MfP0rdhOfiE32-62" value="" style="html=1;verticalAlign=bottom;endArrow=block;curved=0;rounded=0;entryX=0.428;entryY=-0.006;entryDx=0;entryDy=0;entryPerimeter=0;" edge="1" parent="WIyWlLk6GJQsqaUBKTNV-1" target="MHBiXtwAbp6X4gqWfPdT-48">
          <mxGeometry width="80" relative="1" as="geometry">
            <mxPoint x="592" y="242" as="sourcePoint" />
            <mxPoint x="592" y="362" as="targetPoint" />
          </mxGeometry>
        </mxCell>
        <mxCell id="jiSeVn2MfP0rdhOfiE32-68" value="" style="html=1;verticalAlign=bottom;endArrow=block;curved=0;rounded=0;entryX=0.5;entryY=0;entryDx=0;entryDy=0;exitX=1;exitY=0.75;exitDx=0;exitDy=0;" edge="1" parent="WIyWlLk6GJQsqaUBKTNV-1" source="p8QUXjLCniY365Z9Mt4o-3" target="jiSeVn2MfP0rdhOfiE32-69">
          <mxGeometry width="80" relative="1" as="geometry">
            <mxPoint x="1380" y="416" as="sourcePoint" />
            <mxPoint x="1379.06" y="442.81908660052545" as="targetPoint" />
            <Array as="points">
              <mxPoint x="1380" y="407" />
              <mxPoint x="1500" y="407" />
            </Array>
          </mxGeometry>
        </mxCell>
        <mxCell id="jiSeVn2MfP0rdhOfiE32-69" value="frame_relatorio_saida" style="swimlane;fontStyle=0;align=center;verticalAlign=top;childLayout=stackLayout;horizontal=1;startSize=26;horizontalStack=0;resizeParent=1;resizeLast=0;collapsible=1;marginBottom=0;rounded=0;shadow=0;strokeWidth=1;" vertex="1" parent="WIyWlLk6GJQsqaUBKTNV-1">
          <mxGeometry x="1384" y="452" width="239" height="288" as="geometry">
            <mxRectangle x="550" y="140" width="160" height="26" as="alternateBounds" />
          </mxGeometry>
        </mxCell>
        <mxCell id="jiSeVn2MfP0rdhOfiE32-70" value="+texto_relatorio_saida:string&#xa;&#xa;+tree_saida: string&#xa;&#xa;" style="text;align=left;verticalAlign=top;spacingLeft=4;spacingRight=4;overflow=hidden;rotatable=0;points=[[0,0.5],[1,0.5]];portConstraint=eastwest;rounded=0;shadow=0;html=0;" vertex="1" parent="jiSeVn2MfP0rdhOfiE32-69">
          <mxGeometry y="26" width="239" height="64" as="geometry" />
        </mxCell>
        <mxCell id="jiSeVn2MfP0rdhOfiE32-72" value="" style="line;html=1;strokeWidth=1;align=left;verticalAlign=middle;spacingTop=-1;spacingLeft=3;spacingRight=3;rotatable=0;labelPosition=right;points=[];portConstraint=eastwest;" vertex="1" parent="jiSeVn2MfP0rdhOfiE32-69">
          <mxGeometry y="90" width="239" height="19.354411764705887" as="geometry" />
        </mxCell>
        <mxCell id="jiSeVn2MfP0rdhOfiE32-83" value="" style="html=1;verticalAlign=bottom;endArrow=block;curved=0;rounded=0;" edge="1" parent="WIyWlLk6GJQsqaUBKTNV-1">
          <mxGeometry width="80" relative="1" as="geometry">
            <mxPoint x="753" y="242" as="sourcePoint" />
            <mxPoint x="753" y="362" as="targetPoint" />
          </mxGeometry>
        </mxCell>
        <mxCell id="Cwh5arlhYMUDAMULEGBz-15" value="+botao_entrada_relatorio()" style="text;align=left;verticalAlign=top;spacingLeft=4;spacingRight=4;overflow=hidden;rotatable=0;points=[[0,0.5],[1,0.5]];portConstraint=eastwest;rounded=0;shadow=0;html=0;" vertex="1" parent="WIyWlLk6GJQsqaUBKTNV-1">
          <mxGeometry x="1128" y="594.2029745989305" width="180" height="34.752022058823535" as="geometry" />
        </mxCell>
        <mxCell id="Cwh5arlhYMUDAMULEGBz-16" value="+botao_saida_relatorio()" style="text;align=left;verticalAlign=top;spacingLeft=4;spacingRight=4;overflow=hidden;rotatable=0;points=[[0,0.5],[1,0.5]];portConstraint=eastwest;rounded=0;shadow=0;html=0;" vertex="1" parent="WIyWlLk6GJQsqaUBKTNV-1">
          <mxGeometry x="1128" y="562.95" width="180" height="45.05" as="geometry" />
        </mxCell>
        <mxCell id="Cwh5arlhYMUDAMULEGBz-18" value="+entrada_buscar_produto_relatorio" style="text;align=left;verticalAlign=top;spacingLeft=4;spacingRight=4;overflow=hidden;rotatable=0;points=[[0,0.5],[1,0.5]];portConstraint=eastwest;rounded=0;shadow=0;html=0;" vertex="1" parent="WIyWlLk6GJQsqaUBKTNV-1">
          <mxGeometry x="1128" y="645.2029745989305" width="180" height="34.752022058823535" as="geometry" />
        </mxCell>
        <mxCell id="Cwh5arlhYMUDAMULEGBz-19" value="+entrada_buscar_produto_saida:string" style="text;align=left;verticalAlign=top;spacingLeft=4;spacingRight=4;overflow=hidden;rotatable=0;points=[[0,0.5],[1,0.5]];portConstraint=eastwest;rounded=0;shadow=0;html=0;" vertex="1" parent="WIyWlLk6GJQsqaUBKTNV-1">
          <mxGeometry x="1385" y="528" width="180" height="33.698930481283426" as="geometry" />
        </mxCell>
        <mxCell id="Cwh5arlhYMUDAMULEGBz-20" value="+botao_estoque_saida()" style="text;align=left;verticalAlign=top;spacingLeft=4;spacingRight=4;overflow=hidden;rotatable=0;points=[[0,0.5],[1,0.5]];portConstraint=eastwest;rounded=0;shadow=0;html=0;" vertex="1" parent="WIyWlLk6GJQsqaUBKTNV-1">
          <mxGeometry x="1386" y="561.7" width="192" height="34.75" as="geometry" />
        </mxCell>
        <mxCell id="Cwh5arlhYMUDAMULEGBz-21" value="+botao_exportar_saida()" style="text;align=left;verticalAlign=top;spacingLeft=4;spacingRight=4;overflow=hidden;rotatable=0;points=[[0,0.5],[1,0.5]];portConstraint=eastwest;rounded=0;shadow=0;html=0;" vertex="1" parent="WIyWlLk6GJQsqaUBKTNV-1">
          <mxGeometry x="1384" y="665.954996657754" width="180" height="34.752022058823535" as="geometry" />
        </mxCell>
        <mxCell id="Cwh5arlhYMUDAMULEGBz-22" value="+botao_saida_saida()" style="text;align=left;verticalAlign=top;spacingLeft=4;spacingRight=4;overflow=hidden;rotatable=0;points=[[0,0.5],[1,0.5]];portConstraint=eastwest;rounded=0;shadow=0;html=0;" vertex="1" parent="WIyWlLk6GJQsqaUBKTNV-1">
          <mxGeometry x="1384" y="596.2029745989305" width="180" height="34.752022058823535" as="geometry" />
        </mxCell>
        <mxCell id="Cwh5arlhYMUDAMULEGBz-23" value="+botao_entrada_saida()" style="text;align=left;verticalAlign=top;spacingLeft=4;spacingRight=4;overflow=hidden;rotatable=0;points=[[0,0.5],[1,0.5]];portConstraint=eastwest;rounded=0;shadow=0;html=0;" vertex="1" parent="WIyWlLk6GJQsqaUBKTNV-1">
          <mxGeometry x="1385" y="633.2029745989305" width="180" height="34.752022058823535" as="geometry" />
        </mxCell>
        <mxCell id="Cwh5arlhYMUDAMULEGBz-26" value="+botao_exportar_entrada()" style="text;align=left;verticalAlign=top;spacingLeft=4;spacingRight=4;overflow=hidden;rotatable=0;points=[[0,0.5],[1,0.5]];portConstraint=eastwest;rounded=0;shadow=0;html=0;" vertex="1" parent="WIyWlLk6GJQsqaUBKTNV-1">
          <mxGeometry x="1129" y="616.954996657754" width="180" height="34.752022058823535" as="geometry" />
        </mxCell>
        <mxCell id="Cwh5arlhYMUDAMULEGBz-27" value="+botao_estoque_relatorio()" style="text;align=left;verticalAlign=top;spacingLeft=4;spacingRight=4;overflow=hidden;rotatable=0;points=[[0,0.5],[1,0.5]];portConstraint=eastwest;rounded=0;shadow=0;html=0;" vertex="1" parent="WIyWlLk6GJQsqaUBKTNV-1">
          <mxGeometry x="1127" y="529.2029745989305" width="180" height="34.752022058823535" as="geometry" />
        </mxCell>
        <mxCell id="Cwh5arlhYMUDAMULEGBz-38" value="+tree_estoque: string" style="text;align=left;verticalAlign=top;spacingLeft=4;spacingRight=4;overflow=hidden;rotatable=0;points=[[0,0.5],[1,0.5]];portConstraint=eastwest;rounded=0;shadow=0;html=0;" vertex="1" parent="WIyWlLk6GJQsqaUBKTNV-1">
          <mxGeometry x="1128" y="672.2029745989305" width="180" height="34.752022058823535" as="geometry" />
        </mxCell>
        <mxCell id="Cwh5arlhYMUDAMULEGBz-39" value="+tree_saida()" style="text;align=left;verticalAlign=top;spacingLeft=4;spacingRight=4;overflow=hidden;rotatable=0;points=[[0,0.5],[1,0.5]];portConstraint=eastwest;rounded=0;shadow=0;html=0;" vertex="1" parent="WIyWlLk6GJQsqaUBKTNV-1">
          <mxGeometry x="1388" y="691.954996657754" width="180" height="34.752022058823535" as="geometry" />
        </mxCell>
        <mxCell id="Cwh5arlhYMUDAMULEGBz-41" value="" style="html=1;verticalAlign=bottom;endArrow=block;curved=0;rounded=0;" edge="1" parent="WIyWlLk6GJQsqaUBKTNV-1">
          <mxGeometry width="80" relative="1" as="geometry">
            <mxPoint x="1260" y="920" as="sourcePoint" />
            <mxPoint x="1260" y="720" as="targetPoint" />
          </mxGeometry>
        </mxCell>
        <mxCell id="Cwh5arlhYMUDAMULEGBz-42" value="" style="html=1;verticalAlign=bottom;endArrow=block;curved=0;rounded=0;entryX=0.413;entryY=1.076;entryDx=0;entryDy=0;entryPerimeter=0;" edge="1" parent="WIyWlLk6GJQsqaUBKTNV-1" target="p8QUXjLCniY365Z9Mt4o-112">
          <mxGeometry width="80" relative="1" as="geometry">
            <mxPoint x="1190" y="920" as="sourcePoint" />
            <mxPoint x="1280" y="730" as="targetPoint" />
            <Array as="points" />
          </mxGeometry>
        </mxCell>
      </root>
    </mxGraphModel>
  </diagram>
</mxfile>
